When We Were Beautiful, also known as Bon Jovi: When We Were Beautiful, is a 2009 feature documentary of the American rock band Bon Jovi, marking the band's 25th year. Mkv 1080p Ac3 640Kbps



General 
Unique ID : 174640934819553554756225649856402412687 (0x83629EDEE2E7B0698E57EEC7E90BD48F) 
Bon Jovi When We Were Beautiful Mkv 1080p Ac3 640Kbps.mkv 
Format : Matroska 
Format version : Version 2 
File size : 2.58 GiB 
Duration : 1h 20mn 
Overall bit rate mode : Variable 
Overall bit rate : 4 581 Kbps 
Movie name : Bon Jovi When We Were Beautiful 
Encoded date : UTC 2012-10-31 08:24:40 
Writing application : mkvmerge v5.7.0 ('The Whirlwind') built on Jul 8 2012 20:08:51 
Writing library : libebml v1.2.3 + libmatroska v1.3.0 

Video 
ID : 1 
Format : AVC 
Format/Info : Advanced Video Codec 
Format profile : High@L4.0 
Format settings, CABAC : Yes 
Format settings, ReFrames : 3 frames 
Codec ID : V_MPEG4/ISO/AVC 
Duration : 1h 20mn 
Bit rate mode : Variable 
Bit rate : 3 850 Kbps 
Maximum bit rate : 25.0 Mbps 
Width : 1 920 pixels 
Height : 1 080 pixels 
Display aspect ratio : 16:9 
Frame rate mode : Constant 
Frame rate : 23.976 fps 
Color space : YUV 
Chroma subsampling : 4:2:0 
Bit depth : 8 bits 
Scan type : Progressive 
Bits/(Pixel*Frame) : 0.077 
Stream size : 2.17 GiB (84%) 
Writing library : x264 core 125 r2208 d9d2288 
Encoding settings : cabac=1 / ref=3 / deblock=1:0:0 / analyse=0x3:0x113 / me=hex / subme=7 / psy=1 / psy_rd=1.00:0.00 / mixed_ref=1 / me_range=16 / chroma_me=1 / trellis=1 / 8x8dct=1 / cqm=0 / deadzone=21,11 / fast_pskip=1 / chroma_qp_offset=-2 / threads=12 / lookahead_threads=2 / sliced_threads=0 / nr=0 / decimate=1 / interlaced=0 / bluray_compat=0 / constrained_intra=0 / bframes=3 / b_pyramid=0 / b_adapt=1 / b_bias=0 / direct=1 / weightb=1 / open_gop=0 / weightp=2 / keyint=240 / keyint_min=24 / scenecut=40 / intra_refresh=0 / rc_lookahead=40 / rc=crf / mbtree=1 / crf=24.0 / qcomp=0.60 / qpmin=0 / qpmax=69 / qpstep=4 / vbv_maxrate=25000 / vbv_bufsize=25000 / crf_max=0.0 / nal_hrd=vbr / ip_ratio=1.40 / aq=1:1.00 
Default : Yes 
Forced : No 

Audio 
ID : 2 
Format : AC-3 
Format/Info : Audio Coding 3 
Mode extension : CM (complete main) 
Format settings, Endianness : Big 
Codec ID : A_AC3 
Duration : 1h 20mn 
Bit rate mode : Constant 
Bit rate : 640 Kbps 
Channel(s) : 6 channels 
Channel positions : Front: L C R, Side: L R, LFE 
Sampling rate : 48.0 KHz 
Bit depth : 16 bits 
Compression mode : Lossy 
Stream size : 369 MiB (14%) 
Language : English 
Default : Yes 
Forced : No 

Menu 
00:00:00.000 : en:Chapter 00 
00:02:46.791 : en:Chapter 01 
00:13:31.811 : en:Chapter 02 
00:21:10.269 : en:Chapter 03 
00:30:05.303 : en:Chapter 04 
00:38:49.327 : en:Chapter 05 
00:47:31.473 : en:Chapter 06 
00:55:13.310 : en:Chapter 07 
00:57:38.079 : en:Chapter 08 
01:04:32.368 : en:Chapter 09 
01:14:32.092 : en:Chapter 10 
01:15:52.172 : en:Chapter 11 
